<svg width="14" height="15" viewBox="0 0 14 15" fill="none" xmlns="http://www.w3.org/2000/svg">
<path fill-rule="evenodd" clip-rule="evenodd" d="M4.04063 0.956402C4.77375 0.923059 5.0075 0.915649 6.875 0.915649C8.7425 0.915649 8.97625 0.923677 9.70875 0.956402C10.4413 0.989128 10.9412 1.1046 11.3787 1.27193C11.8369 1.44297 12.2525 1.71033 12.5962 2.05612C12.9462 2.39511 13.2163 2.80511 13.3888 3.25833C13.5588 3.69056 13.675 4.18453 13.7088 4.90697C13.7425 5.6325 13.75 5.86343 13.75 7.70782C13.75 9.55282 13.7419 9.78375 13.7088 10.508C13.6756 11.2305 13.5588 11.7245 13.3888 12.1567C13.2162 12.61 12.9458 13.0207 12.5962 13.3601C12.2525 13.7059 11.8369 13.9727 11.3787 14.1431C10.9412 14.311 10.4412 14.4259 9.71 14.4592C8.97625 14.4926 8.7425 14.5 6.875 14.5C5.0075 14.5 4.77375 14.492 4.04063 14.4592C3.30938 14.4265 2.80938 14.311 2.37188 14.1431C1.91308 13.9726 1.49739 13.7055 1.15375 13.3601C0.803987 13.0209 0.533322 12.6105 0.360625 12.1573C0.19125 11.7251 0.075 11.2311 0.04125 10.5087C0.00749999 9.78313 0 9.5522 0 7.70782C0 5.86282 0.00812499 5.63188 0.04125 4.90821C0.074375 4.18453 0.19125 3.69056 0.360625 3.25833C0.533577 2.80516 0.804449 2.39468 1.15437 2.0555C1.49753 1.71003 1.9128 1.44262 2.37125 1.27193C2.80875 1.1046 3.30875 0.989746 4.04 0.956402H4.04063ZM9.65312 2.17899C8.92812 2.14627 8.71063 2.13947 6.875 2.13947C5.03937 2.13947 4.82187 2.14627 4.09687 2.17899C3.42625 2.20925 3.0625 2.31978 2.82 2.41301C2.49938 2.53651 2.27 2.68285 2.02938 2.92057C1.80128 3.13981 1.62574 3.4067 1.51562 3.70167C1.42125 3.94125 1.30938 4.30062 1.27875 4.96316C1.24563 5.67943 1.23875 5.89431 1.23875 7.70782C1.23875 9.52133 1.24563 9.73621 1.27875 10.4525C1.30938 11.115 1.42125 11.4744 1.51562 11.714C1.62562 12.0085 1.80125 12.2759 2.02938 12.4951C2.25125 12.7204 2.52188 12.8939 2.82 13.0026C3.0625 13.0959 3.42625 13.2064 4.09687 13.2366C4.82187 13.2694 5.03875 13.2762 6.875 13.2762C8.71125 13.2762 8.92812 13.2694 9.65312 13.2366C10.3237 13.2064 10.6875 13.0959 10.93 13.0026C11.2506 12.8791 11.48 12.7328 11.7206 12.4951C11.9488 12.2759 12.1244 12.0085 12.2344 11.714C12.3288 11.4744 12.4406 11.115 12.4713 10.4525C12.5044 9.73621 12.5112 9.52133 12.5112 7.70782C12.5112 5.89431 12.5044 5.67943 12.4713 4.96316C12.4406 4.30062 12.3288 3.94125 12.2344 3.70167C12.1094 3.38491 11.9613 3.1583 11.7206 2.92057C11.4987 2.69524 11.2286 2.52182 10.93 2.41301C10.6875 2.31978 10.3237 2.20925 9.65312 2.17899V2.17899ZM5.99688 9.80166C6.48729 10.0033 7.03336 10.0306 7.54183 9.87867C8.0503 9.72678 8.48962 9.40519 8.78476 8.96884C9.07989 8.53249 9.21253 8.00844 9.16003 7.48621C9.10752 6.96398 8.87313 6.47595 8.49688 6.10548C8.25702 5.86867 7.96701 5.68734 7.64771 5.57455C7.32841 5.46176 6.98777 5.42031 6.65031 5.4532C6.31285 5.48608 5.98697 5.59247 5.69613 5.76472C5.40528 5.93697 5.15671 6.17078 4.96831 6.44932C4.77991 6.72787 4.65637 7.04422 4.60657 7.37559C4.55678 7.70697 4.58197 8.04514 4.68034 8.36574C4.77871 8.68635 4.9478 8.98142 5.17545 9.22971C5.4031 9.478 5.68364 9.67334 5.99688 9.80166ZM4.37625 5.23917C4.70439 4.91499 5.09395 4.65783 5.52269 4.48238C5.95142 4.30693 6.41094 4.21663 6.875 4.21663C7.33906 4.21663 7.79858 4.30693 8.22731 4.48238C8.65605 4.65783 9.04561 4.91499 9.37375 5.23917C9.70189 5.56336 9.96219 5.94823 10.1398 6.3718C10.3174 6.79537 10.4088 7.24935 10.4088 7.70782C10.4088 8.16629 10.3174 8.62027 10.1398 9.04384C9.96219 9.46741 9.70189 9.85227 9.37375 10.1765C8.71104 10.8312 7.81221 11.199 6.875 11.199C5.93779 11.199 5.03896 10.8312 4.37625 10.1765C3.71354 9.52174 3.34123 8.63374 3.34123 7.70782C3.34123 6.7819 3.71354 5.8939 4.37625 5.23917V5.23917ZM11.1925 4.73655C11.2738 4.66077 11.3389 4.56964 11.3839 4.46855C11.429 4.36747 11.453 4.25849 11.4546 4.14806C11.4563 4.03763 11.4355 3.92801 11.3934 3.82567C11.3514 3.72333 11.289 3.63036 11.21 3.55227C11.1309 3.47418 11.0368 3.41255 10.9332 3.37103C10.8297 3.32951 10.7187 3.30895 10.6069 3.31056C10.4951 3.31217 10.3848 3.33592 10.2825 3.3804C10.1802 3.42489 10.088 3.4892 10.0112 3.56953C9.86207 3.72577 9.78039 3.9333 9.78356 4.14806C9.78673 4.36282 9.8745 4.56791 10.0282 4.71978C10.182 4.87166 10.3895 4.95837 10.6069 4.9615C10.8243 4.96463 11.0344 4.88394 11.1925 4.73655V4.73655Z" fill="url(#paint0_linear)"/>
<defs>
<linearGradient id="paint0_linear" x1="11" y1="0.915649" x2="0.164402" y2="14.8746" gradientUnits="userSpaceOnUse">
<stop stop-color="#D336C4"/>
<stop offset="1" stop-color="#DCCA2A" stop-opacity="0.67"/>
</linearGradient>
</defs>
</svg>
