<svg width="19" height="16" viewBox="0 0 19 16" fill="none" xmlns="http://www.w3.org/2000/svg">
<path d="M18.3732 2.01134C17.6971 2.30751 16.9707 2.50768 16.2082 2.59773C16.9865 2.13684 17.5842 1.40701 17.8656 0.537424C17.1257 0.971214 16.3161 1.27685 15.472 1.44112C14.7843 0.717383 13.8047 0.265076 12.7205 0.265076C10.6387 0.265076 8.95091 1.93249 8.95091 3.98904C8.95091 4.28096 8.98428 4.56515 9.04851 4.83778C5.91574 4.68243 3.13823 3.19986 1.27902 0.946762C0.954617 1.49678 0.768732 2.13656 0.768732 2.81895C0.768732 4.111 1.43426 5.25081 2.44565 5.91867C1.84704 5.90014 1.26161 5.74042 0.738229 5.45282C0.738014 5.46841 0.738014 5.48401 0.738014 5.49968C0.738014 7.30402 2.03734 8.8092 3.7617 9.15132C3.20662 9.30047 2.62437 9.32229 2.05945 9.21514C2.53909 10.6947 3.93122 11.7713 5.58064 11.8014C4.29057 12.8002 2.66519 13.3956 0.89921 13.3956C0.594904 13.3956 0.294904 13.3779 0 13.3435C1.66816 14.4002 3.64952 15.0167 5.77823 15.0167C12.7117 15.0167 16.5032 9.34206 16.5032 4.42093C16.5032 4.2594 16.4996 4.0988 16.4922 3.93912C17.2302 3.41207 17.8672 2.75926 18.3732 2.01134" fill="#55ACEE"/>
</svg>
