<svg width="22" height="15" viewBox="0 0 22 15" fill="none" xmlns="http://www.w3.org/2000/svg">
<g clip-path="url(#clip0)">
<path d="M20.8655 2.33958C20.7431 1.88738 20.5045 1.47512 20.1732 1.14386C19.842 0.812593 19.4297 0.573884 18.9775 0.4515C17.322 0 10.6592 0 10.6592 0C10.6592 0 3.99601 0.0136666 2.34051 0.465167C1.8883 0.587558 1.47605 0.82628 1.1448 1.15756C0.813546 1.48884 0.574861 1.90111 0.452509 2.35333C-0.0482409 5.29483 -0.242491 9.777 0.466259 12.6008C0.588624 13.053 0.827314 13.4653 1.15856 13.7966C1.48981 14.1278 1.90206 14.3665 2.35426 14.4889C4.00976 14.9404 10.6728 14.9404 10.6728 14.9404C10.6728 14.9404 17.3357 14.9404 18.9911 14.4889C19.4433 14.3665 19.8556 14.1278 20.1868 13.7966C20.5181 13.4653 20.7568 13.053 20.8792 12.6008C21.4073 9.65517 21.5701 5.17583 20.8655 2.33967V2.33958Z" fill="#FF0000"/>
<path d="M8.53833 10.6717L14.0657 7.47018L8.53841 4.26868L8.53833 10.6717Z" fill="white"/>
</g>
<defs>
<clipPath id="clip0">
<rect width="21.34" height="15" fill="white"/>
</clipPath>
</defs>
</svg>
